<?xml version="1.0"?>
<svg xmlns="http://www.w3.org/2000/svg" width="311" height="120" viewBox="0 0 311 120" fill="none">
<mask id="mask0_7_6" style="mask-type:luminance" maskUnits="userSpaceOnUse" x="0" y="0" width="311" height="120">
<path d="M0 -7.62939e-06H311V120H0V-7.62939e-06Z" fill="white"/>
</mask>
<g mask="url(#mask0_7_6)">
<path d="M38.3686 92.7008C38.2036 92.9198 38.0045 93.1263 37.7709 93.3214C37.5377 93.5173 37.2671 93.689 36.9604 93.8372C36.6537 93.9846 36.3145 94.102 35.9438 94.1896C35.5723 94.2748 35.1675 94.3186 34.7277 94.3186C33.9949 94.3186 33.3172 94.2048 32.6944 93.9784C32.0712 93.752 31.5356 93.4372 31.0868 93.0352C30.6383 92.6336 30.2873 92.1577 30.0356 91.6059C29.7843 91.0553 29.6582 90.4511 29.6582 89.7942C29.6582 89.1372 29.7862 88.5342 30.043 87.9825C30.2991 87.4303 30.654 86.954 31.1076 86.5528C31.5611 86.152 32.0967 85.8376 32.7148 85.61C33.3333 85.3832 34.0043 85.2694 34.7277 85.2694C35.085 85.2694 35.4353 85.3022 35.7789 85.3687C36.1224 85.4348 36.4452 85.5267 36.7476 85.646C37.05 85.7668 37.324 85.9099 37.5714 86.0773C37.8192 86.2439 38.025 86.4331 38.1899 86.6443L37.3653 87.1796C37.2647 87.042 37.1297 86.904 36.9604 86.7659C36.7904 86.6283 36.5917 86.5066 36.3628 86.4003C36.1338 86.2951 35.8841 86.2106 35.6139 86.1449C35.3438 86.0804 35.0532 86.0479 34.7414 86.0479C34.1092 86.0479 33.5433 86.15 33.0443 86.351C32.5452 86.5536 32.1219 86.8265 31.7739 87.1695C31.4256 87.5136 31.1606 87.9109 30.9768 88.3633C30.7938 88.8166 30.7019 89.294 30.7019 89.7942C30.7019 90.2955 30.7958 90.7714 30.9839 91.2246C31.1712 91.6771 31.4394 92.0756 31.7877 92.4193C32.1356 92.7618 32.5593 93.0352 33.0584 93.2374C33.5575 93.4395 34.1186 93.54 34.7414 93.54C35.2998 93.54 35.8315 93.4384 36.3353 93.2362C36.8391 93.0336 37.2604 92.7091 37.5993 92.2629L38.3686 92.7008Z" fill="#B4B5B6"/>
<path d="M50.6103 91.0342H54.8967L52.7539 86.4617L50.6103 91.0342ZM49.1817 94.0997H48.0959L52.3003 85.488H53.2616L57.4385 94.0997H56.339L55.2678 91.8382H50.2392L49.1817 94.0997Z" fill="#B4B5B6"/>
<path d="M69.199 89.3559H70.8757C71.6536 89.3559 72.2446 89.2225 72.6475 88.9558C73.0503 88.6872 73.2522 88.2989 73.2522 87.7874C73.2522 87.252 73.0441 86.861 72.6274 86.6135C72.21 86.3663 71.6265 86.2427 70.8757 86.2427H69.199V89.3559ZM68.2102 85.488H70.9578C71.4525 85.488 71.9014 85.5353 72.3043 85.6284C72.7067 85.7215 73.0531 85.8638 73.3417 86.0546C73.6299 86.2447 73.8522 86.4844 74.0081 86.7714C74.1636 87.0592 74.2417 87.3979 74.2417 87.7874C74.2417 88.1773 74.1612 88.5155 74.001 88.8029C73.8408 89.0911 73.6162 89.3297 73.328 89.5205C73.0393 89.7106 72.691 89.8548 72.2838 89.9526C71.8758 90.0488 71.425 90.0981 70.9307 90.0981H69.199V94.0997H68.2102V85.488Z" fill="#B4B5B6"/>
<path d="M86.5101 94.0999H85.5214V85.4882H86.5101V94.0999Z" fill="#B4B5B6"/>
<path d="M101.555 94.0997H100.565V86.2666H97.3091V85.488H104.811V86.2666H101.555V94.0997Z" fill="#B4B5B6"/>
<path d="M116.145 91.0342H120.432L118.289 86.4617L116.145 91.0342ZM114.717 94.0997H113.631L117.835 85.488H118.797L122.974 94.0997H121.874L120.803 91.8382H115.774L114.717 94.0997Z" fill="#B4B5B6"/>
<path d="M134.734 93.3211H139.268V94.0997H133.745V85.488H134.734V93.3211Z" fill="#B4B5B6"/>
<path d="M163.532 93.3449H165.373C165.73 93.3449 166.071 93.3144 166.396 93.2546C166.721 93.1928 167.005 93.0959 167.248 92.9617C167.491 92.8284 167.685 92.6544 167.831 92.4401C167.978 92.2242 168.051 91.9665 168.051 91.667C168.051 91.0996 167.834 90.676 167.4 90.3957C166.964 90.1165 166.348 89.9765 165.552 89.9765H163.532V93.3449ZM163.532 89.2585H165.524C165.761 89.2585 166.002 89.2343 166.245 89.1862C166.488 89.1369 166.71 89.0536 166.911 88.9367C167.112 88.8194 167.275 88.6625 167.4 88.4682C167.523 88.2731 167.585 88.0341 167.585 87.7506C167.585 87.4749 167.523 87.2419 167.4 87.0514C167.275 86.8606 167.108 86.7046 166.898 86.583C166.687 86.4613 166.44 86.3749 166.156 86.3213C165.871 86.2686 165.569 86.2424 165.249 86.2424H163.532V89.2585ZM162.543 85.488H165.441C165.807 85.488 166.178 85.5232 166.554 85.592C166.93 85.6613 167.267 85.7782 167.564 85.9448C167.861 86.111 168.104 86.3358 168.292 86.6189C168.48 86.9036 168.573 87.2602 168.573 87.6896C168.573 88.144 168.417 88.539 168.104 88.8753C167.791 89.2124 167.372 89.4337 166.847 89.5389V89.5627C167.479 89.6273 168.002 89.8439 168.417 90.2134C168.833 90.583 169.041 91.0831 169.041 91.7155C169.041 92.0721 168.956 92.3998 168.787 92.6946C168.618 92.9903 168.378 93.2421 168.068 93.449C167.757 93.6547 167.378 93.8158 166.93 93.9284C166.481 94.0426 165.979 94.0997 165.422 94.0997H162.543V85.488Z" fill="#B4B5B6"/>
<path d="M181.612 89.3195H183.329C184.126 89.3195 184.74 89.1916 185.171 88.9367C185.6 88.6813 185.816 88.2985 185.816 87.787C185.816 87.5035 185.757 87.2634 185.638 87.0702C185.518 86.8751 185.353 86.7163 185.143 86.5947C184.932 86.4731 184.676 86.3847 184.374 86.328C184.072 86.2709 183.737 86.2424 183.37 86.2424H181.612V89.3195ZM181.612 94.0997H180.623V85.488H183.48C183.956 85.488 184.399 85.5287 184.806 85.6096C185.214 85.6906 185.566 85.8231 185.864 86.0046C186.161 86.1876 186.393 86.425 186.559 86.7163C186.723 87.0084 186.806 87.3654 186.806 87.787C186.806 88.1033 186.741 88.3908 186.613 88.6508C186.484 88.9105 186.311 89.1349 186.091 89.325C185.871 89.5166 185.611 89.6675 185.308 89.7817C185.006 89.8955 184.676 89.9675 184.319 90.0007L187.163 94.0997H185.954L183.26 90.0742H181.612V94.0997Z" fill="#B4B5B6"/>
<path d="M206.768 89.8008C206.768 89.2979 206.677 88.8209 206.495 88.3676C206.311 87.9144 206.045 87.5155 205.697 87.1706C205.349 86.8273 204.926 86.5547 204.426 86.3522C203.926 86.15 203.366 86.0479 202.743 86.0479C202.12 86.0479 201.559 86.15 201.06 86.3522C200.56 86.5547 200.137 86.8273 199.789 87.1706C199.441 87.5155 199.175 87.9144 198.993 88.3676C198.808 88.8209 198.718 89.2979 198.718 89.8008C198.718 90.3022 198.808 90.7804 198.993 91.2336C199.175 91.6872 199.441 92.0834 199.789 92.4236C200.137 92.763 200.56 93.0344 201.06 93.2374C201.559 93.4395 202.12 93.5404 202.743 93.5404C203.366 93.5404 203.926 93.4395 204.426 93.2374C204.926 93.0344 205.349 92.763 205.697 92.4236C206.045 92.0834 206.311 91.6872 206.495 91.2336C206.677 90.7804 206.768 90.3022 206.768 89.8008ZM207.812 89.7942C207.812 90.4511 207.685 91.0553 207.428 91.6059C207.172 92.1577 206.816 92.6336 206.364 93.0352C205.91 93.4372 205.374 93.752 204.756 93.9784C204.137 94.2048 203.467 94.3186 202.743 94.3186C202.019 94.3186 201.348 94.2048 200.731 93.9784C200.111 93.752 199.576 93.4372 199.123 93.0352C198.669 92.6336 198.314 92.1577 198.058 91.6059C197.801 91.0553 197.674 90.4511 197.674 89.7942C197.674 89.1372 197.801 88.5342 198.058 87.9825C198.314 87.4303 198.669 86.954 199.123 86.5528C199.576 86.152 200.111 85.8376 200.731 85.61C201.348 85.3832 202.019 85.2694 202.743 85.2694C203.467 85.2694 204.137 85.3832 204.756 85.61C205.374 85.8376 205.91 86.152 206.364 86.5528C206.816 86.954 207.172 87.4303 207.428 87.9825C207.685 88.5342 207.812 89.1372 207.812 89.7942Z" fill="#B4B5B6"/>
<path d="M220.206 89.3559H220.22L224.85 85.488H226.264L221.359 89.3922L226.539 94.0997H225.083L220.22 89.5146H220.206V94.0997H219.217V85.488H220.206V89.3559Z" fill="#B4B5B6"/>
<path d="M238.176 93.3211H243.383V94.0997H237.187V85.488H243.218V86.2662H238.176V89.2225H242.888V90.0007H238.176V93.3211Z" fill="#B4B5B6"/>
<path d="M255.653 89.3195H257.369C258.166 89.3195 258.78 89.1916 259.211 88.9367C259.641 88.6813 259.856 88.2985 259.856 87.787C259.856 87.5035 259.797 87.2634 259.678 87.0702C259.558 86.8751 259.393 86.7163 259.183 86.5947C258.972 86.4731 258.716 86.3847 258.414 86.328C258.112 86.2709 257.778 86.2424 257.411 86.2424H255.653V89.3195ZM255.653 94.0997H254.663V85.488H257.52C257.996 85.488 258.439 85.5287 258.846 85.6096C259.254 85.6906 259.607 85.8231 259.904 86.0046C260.202 86.1876 260.433 86.425 260.599 86.7163C260.763 87.0084 260.846 87.3654 260.846 87.787C260.846 88.1033 260.781 88.3908 260.653 88.6508C260.524 88.9105 260.351 89.1349 260.131 89.325C259.911 89.5166 259.651 89.6675 259.348 89.7817C259.046 89.8955 258.716 89.9675 258.359 90.0007L261.203 94.0997H259.994L257.3 90.0742H255.653V94.0997Z" fill="#B4B5B6"/>
<path d="M276.949 86.8754C276.737 86.6157 276.467 86.4069 276.137 86.2489C275.807 86.0902 275.409 86.012 274.942 86.012C274.703 86.012 274.461 86.0444 274.214 86.109C273.967 86.1735 273.742 86.2732 273.54 86.4069C273.339 86.5403 273.176 86.7088 273.052 86.9118C272.929 87.1139 272.867 87.354 272.867 87.6293C272.867 87.9046 272.927 88.1322 273.046 88.3105C273.164 88.4889 273.322 88.6414 273.519 88.7657C273.714 88.892 273.938 88.9961 274.189 89.077C274.441 89.1579 274.703 89.2389 274.977 89.3198C275.315 89.4176 275.655 89.5224 275.997 89.6362C276.34 89.7492 276.649 89.8978 276.923 90.0796C277.197 90.2627 277.421 90.4934 277.595 90.7726C277.768 91.053 277.854 91.4076 277.854 91.8382C277.854 92.2668 277.762 92.6383 277.577 92.9503C277.391 93.262 277.152 93.5205 276.856 93.7226C276.56 93.9256 276.222 94.0758 275.842 94.1727C275.462 94.2705 275.079 94.3186 274.695 94.3186C274.401 94.3186 274.109 94.2924 273.815 94.24C273.522 94.1872 273.242 94.107 272.977 94.0022C272.712 93.8971 272.464 93.7637 272.236 93.6002C272.005 93.4384 271.804 93.2522 271.63 93.0411L272.483 92.4815C272.693 92.79 272.989 93.0481 273.369 93.2546C273.749 93.4614 274.196 93.5647 274.708 93.5647C274.955 93.5647 275.207 93.5306 275.464 93.4614C275.72 93.3926 275.952 93.2874 276.158 93.1451C276.364 93.0027 276.533 92.8287 276.666 92.6218C276.799 92.415 276.866 92.1741 276.866 91.898C276.866 91.5981 276.799 91.3486 276.666 91.1503C276.533 90.9509 276.357 90.7859 276.137 90.651C275.917 90.5176 275.666 90.4058 275.382 90.3174C275.097 90.2275 274.8 90.1391 274.488 90.0491C274.168 89.9608 273.851 89.8587 273.54 89.7461C273.229 89.6323 272.949 89.4841 272.703 89.3011C272.456 89.1196 272.256 88.894 272.105 88.6273C271.954 88.3586 271.878 88.0306 271.878 87.6419C271.878 87.2281 271.972 86.8707 272.16 86.5712C272.348 86.2712 272.593 86.0237 272.895 85.829C273.198 85.6354 273.531 85.4927 273.897 85.4027C274.264 85.3143 274.625 85.2694 274.983 85.2694C275.642 85.2694 276.206 85.3734 276.673 85.5803C277.141 85.7859 277.492 86.0323 277.731 86.3158L276.949 86.8754Z" fill="#B4B5B6"/>
</g>
<path d="M39.668 25.5083C37.9874 26.0252 36.4818 26.8202 35.1522 27.896C33.8211 28.971 32.7455 30.3225 31.9295 31.9559C31.1124 33.5881 30.7044 35.5418 30.7044 37.8134C30.7044 39.6329 30.9726 41.1944 31.5098 42.4946C32.0454 43.7964 32.7703 44.9324 33.6809 45.9045C34.5907 46.8767 35.6423 47.7147 36.8325 48.4162C38.0231 49.1182 39.2934 49.7571 40.6481 50.3378C42.7953 51.2885 44.5706 52.3228 45.9721 53.4377C47.3716 54.5545 48.0725 56.0608 48.0725 57.9644C48.0725 59.9079 47.4878 61.4154 46.3219 62.4885C45.1537 63.5642 43.6831 64.1023 41.9094 64.1023C40.3226 64.1023 38.7696 63.7703 37.2531 63.1091C35.7338 62.4466 34.4391 61.539 33.364 60.3811L28.8129 65.8358C30.2143 67.2843 32.0807 68.4821 34.4152 69.4311C36.7508 70.3825 39.2934 70.8577 42.0496 70.8577C43.9631 70.8577 45.7844 70.5699 47.5117 69.9903C49.2391 69.4127 50.7446 68.5544 52.0283 67.4188C53.3135 66.2816 54.3396 64.8868 55.1104 63.235C55.8801 61.5793 56.2673 59.6788 56.2673 57.5288C56.2673 55.6698 55.9386 54.0587 55.2863 52.6923C54.6318 51.3284 53.7918 50.1525 52.765 49.1596C51.7362 48.1687 50.5939 47.3217 49.333 46.6178C48.0725 45.9147 46.8348 45.2961 45.621 44.7588C43.5661 43.8488 41.9094 42.8899 40.6481 41.8752C39.3873 40.8628 38.7574 39.4249 38.7574 37.5674C38.7574 36.492 38.9337 35.5605 39.284 34.7765C39.6343 33.9928 40.1121 33.3499 40.7184 32.8541C41.3243 32.3571 42.0021 31.9973 42.7497 31.7701C43.4954 31.5417 44.2667 31.4287 45.061 31.4287C47.8157 31.4287 50.1042 32.4013 51.925 34.342L56.5476 29.0117C55.1921 27.6051 53.5236 26.5418 51.5382 25.8172C49.5544 25.0965 47.3021 24.7336 44.7807 24.7336C43.0525 24.7336 41.3483 24.9897 39.668 25.5083Z" fill="url(#paint0_linear_7_6)"/>
<path d="M59.6969 25.8488V32.1717H69.0112V69.7416H77.2755V32.1717H86.5909V25.8488H59.6969Z" fill="url(#paint1_linear_7_6)"/>
<path d="M92.892 25.8488V69.7416H115.794V63.1086H100.947V50.152H114.043V44.0748H100.947V32.4192H115.093V25.8488H92.892Z" fill="url(#paint2_linear_7_6)"/>
<path d="M124.828 25.8488V69.7416H132.952V51.0182H137.645L145.347 69.7416H154.17L145.278 49.5315C146.164 49.3254 147.064 48.9437 147.974 48.3841C148.885 47.8257 149.713 47.0925 150.461 46.1845C151.207 45.2749 151.827 44.169 152.316 42.8664C152.807 41.5635 153.05 40.0673 153.05 38.3725C153.05 36.1807 152.7 34.3002 152.002 32.7301C151.301 31.1593 150.331 29.8575 149.095 28.8239C147.857 27.7916 146.374 27.0364 144.647 26.5609C142.92 26.0858 141.028 25.8488 138.975 25.8488H124.828ZM132.952 32.0493H137.715C138.555 32.0493 139.396 32.1521 140.236 32.3567C141.076 32.5659 141.835 32.9151 142.512 33.4129C143.188 33.9083 143.737 34.5888 144.157 35.4573C144.577 36.3254 144.787 37.4223 144.787 38.7444C144.787 41.0176 144.122 42.7229 142.791 43.8581C141.461 44.9953 139.768 45.5627 137.715 45.5627H132.952V32.0493Z" fill="url(#paint3_linear_7_6)"/>
<path d="M162.153 25.8488V69.7416H184.286V62.8599H170.629V25.8488H162.153Z" fill="url(#paint4_linear_7_6)"/>
<path d="M191.148 69.7416H199.553V25.8488H191.148V69.7416Z" fill="url(#paint5_linear_7_6)"/>
<path d="M233.472 25.8488L233.542 57.0341H233.332L219.395 25.8488H209.799V69.7416H217.364L217.224 38.7444H217.433L231.511 69.7416H240.755V25.8488H233.472Z" fill="url(#paint6_linear_7_6)"/>
<path d="M258.24 26.4389C255.998 27.5765 254.082 29.1649 252.495 31.2132C250.909 33.2561 249.694 35.6852 248.855 38.4945C248.014 41.3058 247.594 44.3841 247.594 47.7334C247.594 51.1649 248.026 54.2854 248.891 57.0967C249.754 59.9079 250.992 62.325 252.602 64.3502C254.212 66.3758 256.184 67.9353 258.52 69.0303C260.854 70.124 263.492 70.6727 266.433 70.6727C269.327 70.6727 271.815 70.3407 273.891 69.6798C275.969 69.0205 277.755 68.1528 279.249 67.0774V44.8209H265.594V51.2681H271.616V62.6132C271.056 62.9862 270.318 63.2854 269.41 63.5142C268.498 63.7394 267.485 63.8524 266.365 63.8524C264.588 63.8524 263.06 63.4406 261.776 62.6132C260.491 61.7861 259.429 60.6392 258.589 59.172C257.749 57.704 257.118 55.9896 256.698 54.0266C256.279 52.0635 256.068 49.9651 256.068 47.7334C256.068 45.5862 256.279 43.539 256.698 41.5959C257.118 39.6536 257.749 37.949 258.589 36.4814C259.429 35.0154 260.491 33.8462 261.776 32.978C263.06 32.1087 264.566 31.6762 266.293 31.6762C269.468 31.6762 271.987 32.8771 273.858 35.2727L278.69 30.0659C277.336 28.3699 275.584 27.0583 273.437 26.1277C271.287 25.1977 268.745 24.7336 265.803 24.7336C263.002 24.7336 260.48 25.3006 258.24 26.4389Z" fill="url(#paint7_linear_7_6)"/>
<defs>
<linearGradient id="paint0_linear_7_6" x1="25.3313" y1="47.7956" x2="285.015" y2="47.7956" gradientUnits="userSpaceOnUse">
<stop stop-color="#B3B4B5"/>
<stop offset="0.337775" stop-color="#B3B4B5"/>
<stop offset="1" stop-color="#DFA727"/>
</linearGradient>
<linearGradient id="paint1_linear_7_6" x1="25.3292" y1="47.7952" x2="285.016" y2="47.7952" gradientUnits="userSpaceOnUse">
<stop stop-color="#B3B4B5"/>
<stop offset="0.337775" stop-color="#B3B4B5"/>
<stop offset="1" stop-color="#DFA727"/>
</linearGradient>
<linearGradient id="paint2_linear_7_6" x1="25.3303" y1="47.7952" x2="285.009" y2="47.7952" gradientUnits="userSpaceOnUse">
<stop stop-color="#B3B4B5"/>
<stop offset="0.337775" stop-color="#B3B4B5"/>
<stop offset="1" stop-color="#DFA727"/>
</linearGradient>
<linearGradient id="paint3_linear_7_6" x1="25.3362" y1="47.7952" x2="284.998" y2="47.7952" gradientUnits="userSpaceOnUse">
<stop stop-color="#B3B4B5"/>
<stop offset="0.337775" stop-color="#B3B4B5"/>
<stop offset="1" stop-color="#DFA727"/>
</linearGradient>
<linearGradient id="paint4_linear_7_6" x1="25.3207" y1="47.7952" x2="285.013" y2="47.7952" gradientUnits="userSpaceOnUse">
<stop stop-color="#B3B4B5"/>
<stop offset="0.337775" stop-color="#B3B4B5"/>
<stop offset="1" stop-color="#DFA727"/>
</linearGradient>
<linearGradient id="paint5_linear_7_6" x1="25.3248" y1="47.7952" x2="285.01" y2="47.7952" gradientUnits="userSpaceOnUse">
<stop stop-color="#B3B4B5"/>
<stop offset="0.337775" stop-color="#B3B4B5"/>
<stop offset="1" stop-color="#DFA727"/>
</linearGradient>
<linearGradient id="paint6_linear_7_6" x1="24.0611" y1="47.7952" x2="283.744" y2="47.7952" gradientUnits="userSpaceOnUse">
<stop stop-color="#B3B4B5"/>
<stop offset="0.337775" stop-color="#B3B4B5"/>
<stop offset="1" stop-color="#DFA727"/>
</linearGradient>
<linearGradient id="paint7_linear_7_6" x1="21.6163" y1="47.703" x2="281.293" y2="47.703" gradientUnits="userSpaceOnUse">
<stop stop-color="#B3B4B5"/>
<stop offset="0.337775" stop-color="#B3B4B5"/>
<stop offset="1" stop-color="#DFA727"/>
</linearGradient>
</defs>
</svg>
